<?xml version="1.0" encoding="utf-8"?>
<!-- Generator: Adobe Illustrator 23.0.1, SVG Export Plug-In . SVG Version: 6.00 Build 0)  -->
<svg version="1.1" id="Layer_1" xmlns="http://www.w3.org/2000/svg" xmlns:xlink="http://www.w3.org/1999/xlink" x="0px" y="0px"
	 viewBox="0 0 300 300" style="enable-background:new 0 0 300 300;" xml:space="preserve">
<style type="text/css">
	.st0{fill:#010101;}
</style>
<g>
	<path class="st0" d="M266.68,148.02c-0.86-3.06-1.84-6.06-3.44-8.83c-0.27-0.47-0.28-1.08-0.5-2.01c-1.07-1.55-3.05-2.54-5.01-3.57
		c-3.78-1.99-7.54-4.01-11.31-6.02c-2.73-1.46-5.46-2.9-8.19-4.38c-0.91-0.49-1.79-1.03-2.66-1.59c-1.02-0.65-1.58-1.52-1.21-2.78
		c0.71-1.03,1.65-1.31,2.88-1.13c1.5,0.23,3.02,0.39,4.53,0.39c3.44-0.01,6.88-0.07,10.31-0.24c1.32-0.06,2.58-0.64,3.44-1.7
		c2.92-3.6,4.8-7.47,3.75-12.36c-0.84-3.92-0.6-7.95-0.64-11.93c0-0.34,0.07-0.68,0.1-1.03c0.27-3.99,0.55-7.97,0.79-11.96
		c0.24-4.03-0.41-7.83-2.95-11.14c-0.12-0.16-0.21-0.36-0.32-0.53c-0.8-1.34-1.26-2.73-0.8-4.33c0.15-0.51,0.08-1.09,0.06-1.64
		c-0.03-1.24-0.08-2.47-0.15-3.71c-0.19-3.02-0.22-6.06-0.63-9.05c-0.81-5.88-3.84-10.22-9.44-12.6c-1.33-0.56-2.61-1.25-3.89-1.92
		c-1.49-0.77-2.89-1.65-3.12-3.5c-1.09-0.5-2.07-1.01-3.08-1.42c-1.07-0.43-2.1-1.03-3.52-0.91c-0.48,0.63-1.02,1.34-1.48,1.95
		c-1.52-0.22-2.75-0.41-3.97-0.58c-7.25-1.01-13.96,0.34-19.51,5.26c-5.02,4.45-8.8,9.92-10.49,16.51
		c-1.11,4.33-3.12,7.99-6.07,11.32c-4.2,4.74-8.2,9.67-12.23,14.56c-1.92,2.34-3.74,4.77-5.54,7.21c-1.68,2.28-1.88,4.82-1.08,7.48
		c0.57,1.89,1.58,3.51,3.01,4.86c0.5,0.47,1,0.93,1.47,1.36c0.2,1.17,0.38,2.24,0.54,3.25c-1.1,1.69-2.58,2.36-4.42,2.44
		c-2.34,0.11-4.68,0.2-7.01,0.45c-2.8,0.3-5.58,0.77-8.59,1.19c0.5,0.54,0.79,0.87,1.19,1.3c-2.35,1.04-4.79,1.09-7.19,1.65
		c0.26,0.48,0.44,0.84,0.64,1.19c1.33,2.4,0.96,4.67-0.68,6.73c-0.63,0.8-1.48,1.43-2.27,2.09c-0.57,0.48-1.21,0.89-1.87,1.36
		c0.14,2.88,1.2,5.28,3.37,7.09c3.06,2.56,6.59,3.98,10.64,3.83c4.44-0.16,8.76-0.98,12.92-2.54c2.99-1.12,5.82-2.57,8.13-4.81
		c2.57-2.5,5.68-4.15,8.89-5.55c1.6-0.69,3.45-1,5.21-1.07c4-0.16,6.88,3.08,6.53,7.07c-0.06,0.68-0.17,1.37-0.29,2.05
		c-0.2,1.05,0.01,1.99,0.44,2.99c1.34,3.09,2.72,6.18,3.81,9.37c2.64,7.68,5.12,15.42,7.66,23.14c0.11,0.34,0.14,0.72,0.22,1.15
		c-3.69-1.08-5.87-3.27-6.28-7c-0.01-0.07-0.03-0.13-0.04-0.2c-1.79-8.08-4.23-15.97-7.08-23.73c-0.16-0.42-0.41-0.81-0.7-1.37
		c-1.17,0.54-2.28,0.93-3.27,1.52c-2.79,1.65-5.4,3.55-7.65,5.93c-0.99,1.04-2.18,1.89-3.29,2.81c-0.09,0.07-0.25,0.05-0.51,0.09
		c-0.22-0.34-0.46-0.73-0.7-1.11c0.66-1.23,1.69-1.91,2.7-2.63c2.07-1.49,4.14-2.98,6.19-4.5c3.08-2.29,4.42-5.58,5.22-9.22
		c-0.61,0.38-0.98,0.99-1.51,1.39c-0.52,0.39-1.22,0.82-1.8,0.77c-1.85-0.16-3.35,0.61-4.86,1.46c-1.05,0.59-2.12,1.15-3.19,1.72
		c2.12-2.92,5.24-4.41,8.39-6.27c-2.4-0.34-4.3,0.12-5.85,1.54c-1.86,1.7-4.01,2.89-6.21,4.04c-2.44,1.28-4.93,2.5-7.25,3.97
		c-1.96,1.24-3.86,1.71-6.04,0.81c-0.16-0.07-0.37-0.01-0.6-0.01c-0.33,1.22,0.69,2.68-0.8,3.75c-1.12-0.55-2.27-1.12-3.37-1.67
		c-1.9,1.12-2.23,2.53-1.08,4.3c0.46,0.71,1.3,1.22,1.26,2.45c-1.42-0.2-2.73-0.37-4.18-0.57c-0.56-0.65-1.18-1.38-1.86-2.17
		c-1.67,0.73-3.16,1.41-4.68,2.04c-1.57,0.64-3.08,1.57-5.06,1.22c-1.37-2.27-0.09-4.67-0.27-6.93c-0.42-0.77-0.91-1.45-1.17-2.22
		c-0.28-0.83-0.33-1.73-0.48-2.6c-0.65,0.07-1.23,0.13-1.79,0.19c-1.62-5.46-4.88-8.01-10.51-7.86c-3.36,0.09-6.72,0.59-10.06,1.02
		c-1.21,0.16-2.31,0.08-3.43-0.41c0.08-0.32,0.15-0.61,0.22-0.91c-0.43-0.07-0.82-0.13-1.7-0.26c1.14-0.71,1.91-1.18,2.63-1.63
		c0.74,0.39,1.28,0.68,1.83,0.97c0.68-0.25,1.34-0.46,1.97-0.71c1.83-0.74,3.66-0.94,5.65-0.58c1.88,0.34,3.84,0.47,5.75,0.39
		c3.63-0.15,6.74-1.79,9.6-3.91c0.49-0.36,0.9-0.86,1.29-1.34c1.82-2.24,1.9-4.44,0.22-6.82c-1.02-1.44-2.34-2.56-3.98-3.2
		c-4.23-1.65-8.5-3.22-12.73-4.87c-1.44-0.56-2.69-0.33-3.88,0.55c-1.44,1.06-2.9,2.11-4.31,3.21c-0.52,0.41-0.94,0.95-1.37,1.39
		c0.4,0.77,0.71,1.37,0.99,1.91c-0.38,1.21-1.22,1.81-2.29,1.98c-1.08,0.17-2.18,0.15-3.28,0.2c-0.61,0.02-1.21,0-1.82,0
		c-0.01,0.1-0.02,0.2-0.04,0.3c1.1,0.27,2.2,0.54,3.57,0.87c-1.34,1.12-2.53,1.75-4.12,1.35c-0.93-0.23-1.9-0.38-2.85-0.46
		c-1.67-0.13-3.29,0.07-4.76,1.17c-0.32,2.3-0.06,4.57,1.15,6.56c1.43,2.35,3.1,4.55,4.68,6.8c0.3,0.43,0.72,0.79,1.05,1.14
		c1.11-0.32,2.09-0.71,3.1-0.87c5.79-0.88,11.57-1.8,17.38-2.48c1.58-0.18,3.31,0.18,4.86,0.67c2.76,0.88,4.15,4.11,3.04,6.73
		c-0.96,2.26-2.4,4.19-4.45,5.59c-2.32,1.59-4.83,1.74-7.49,0.9c-0.31-0.7-0.57-1.31-0.94-2.16c2.6-0.18,4.97-0.5,7.06-1.82
		c2.12-1.35,3.55-3.11,3.81-5.84c-3.08-0.02-5.72,0.9-8.24,2.21c-0.71,0.37-1.28,0.99-1.89,1.53c-1.24,1.09-2.41,2.26-3.72,3.25
		c-0.53,0.4-1.36,0.41-2.36,0.68c-0.1-1.34-0.17-2.37-0.26-3.6c-1.36,0.65-2.6,1.23-3.83,1.84c-1.48,0.73-2.89,1.67-4.44,2.19
		c-3.43,1.17-6.55,2.87-9.54,4.87c-0.36,0.24-0.79,0.36-1.34,0.6c-0.18-2.51,0.31-4.72,0.86-6.91c0.62-2.47,1.24-4.94,1.96-7.38
		c0.43-1.43,0.19-2.7-0.44-3.98c-0.79-1.61-1.65-3.19-2.31-4.85c-0.37-0.93-0.65-2.01-0.58-2.99c0.18-2.41,0.71-4.77,1.73-6.98
		c1.01-2.19,2.47-3.97,4.67-5.06c4.26-2.1,8.5-4.26,13.12-5.47c1.86-0.49,3.2-1.52,4.1-3.19c0.26-0.49,0.54-0.96,0.79-1.45
		c1.8-3.4,4.75-5.86,7.2-8.73c0.09-0.1,0.22-0.17,0.33-0.25c2.95-2.15,5.89-4.31,8.86-6.43c0.89-0.64,1.85-1.21,2.82-1.73
		c3.15-1.67,6.35-2.22,9.61-0.29c2.03,2.92,2.24,6.01,0.68,9.16c-1.26,2.55-3.1,4.71-5.16,6.66c-0.94,0.89-2.04,1.4-3.4,1.02
		c-0.07-0.02-0.2,0.13-0.3,0.21c-0.03,0.61-0.06,1.21-0.1,1.83c-0.43,0.2-0.79,0.36-1.13,0.51c-1.11-0.76-1.52-1.69-1.18-3.15
		c2.23-1.1,2.35-3.82,3.64-5.77c0.89-0.25,1.69-0.44,2.47-0.69c0.78-0.25,1.55-0.56,2.5-0.92c-3-1.83-3.66-2.71-3.51-4.49
		c0.61,0.42,1.22,0.85,1.98,1.38c0.21-1.31,0.12-2.32-0.72-3.29c-2.53,0.39-4.91,1.19-7.22,2.26c0.02,0.39,0.04,0.72,0.07,1.13
		c-0.51,0.15-1.03,0.29-1.12,0.32c-1.74,1.99-2.98,4.01-4.75,5.33c-3.06,2.29-5.59,5.08-8.31,7.71c-0.86,0.83-1.5,1.77-1.42,2.99
		c4.83,1.94,9.58,3.85,14.32,5.75c1.11-2.2,1.88-4.69,4.21-6.15c0.1-0.37,0.21-0.77,0.31-1.17c0.41-0.24,0.8-0.48,1.19-0.7
		c0-0.53,0-0.99,0-1.31c1.08-0.39,2.2-0.52,2.96-1.12c3.06-2.38,5.36-5.37,6.25-9.22c0.71-3.11,0.19-5.99-2.18-8.34
		c-1.52-2.23-3.77-2.69-6.19-2.29c-1.54,0.25-3.13,0.73-4.46,1.52c-2.3,1.36-4.45,2.99-6.61,4.57c-1.27,0.94-2.37,2.13-3.68,3
		c-1.65,1.08-3.02,2.4-4.15,3.98c-1.69,2.35-3.42,4.68-5,7.09c-1.56,2.38-3.68,3.85-6.42,4.5c-3.17,0.75-6.14,2.04-8.99,3.59
		c-0.97,0.53-1.93,1.08-2.94,1.52c-2.36,1.03-3.86,2.85-4.81,5.15c-1.07,2.57-1.41,5.3-1.67,7.54c1.43,2.97,2.67,5.49,3.87,8.04
		c0.64,1.36,0.73,2.77,0.28,4.23c-0.81,2.65-1.94,5.12-3.69,7.32c-1.19,1.5-2.26,3.13-3.13,4.84c-1.51,2.96-3.15,5.83-5.21,8.42
		c-5.12,6.44-10.83,12.31-17.13,17.6c-1.16,0.97-2.45,1.78-3.65,2.7c-1.03,0.8-2.09,1.59-3,2.51c-1.85,1.86-3.61,3.8-5.39,5.71
		c-7.02,7.52-14.37,14.67-22.57,20.91c-3.45,2.63-6.72,5.5-9.99,8.35c-3.28,2.86-6.29,5.99-8.84,9.53c-0.19,0.27-0.31,0.59-0.5,0.96
		c0.37,0.46,0.71,0.88,1.05,1.29c0.03,0.04,0.13,0.03,0.28,0.05c7.97-7.32,16.01-14.63,25.61-19.82c2.98,2.17,4.14,4.21,3.87,6.8
		c-7.06,4.21-13.7,9.08-19.85,15.04c0.88,0.27,1.51,0.47,2.1,0.65c6.76-6.86,14.42-12.12,23.19-16.24
		c-0.36,2.28,0.46,3.81,2.05,5.11c4.87-4.12,10.1-7.41,15.66-10.2c5.62-2.82,11.39-5.19,17.46-6.56c2.65,1.36,3.69,2.45,4.51,4.74
		c-1.4,0.68-2.83,1.34-4.22,2.07c-4.08,2.15-8.13,4.36-12.23,6.48c-4.66,2.42-9.14,5.11-13.3,8.31c-0.41,0.31-0.78,0.68-1.35,1.18
		c1.09,0.58,1.96,1.13,2.89,1.53c0.92,0.39,1.88,0.36,2.78-0.18c2.48-1.49,4.95-2.99,7.43-4.47c2.48-1.48,4.96-2.95,7.63-4.54
		c1.52,0.74,3.05,1.47,4.76,2.3c4.37-2.59,8.85-5.26,13.34-7.93c1.11,0.31,1.96,0.88,2.49,1.93c-0.72,0.51-1.35,0.94-1.96,1.38
		c-5.86,4.18-11.37,8.77-15.79,14.49c-2.94,3.81-5.57,7.87-8.33,11.82c-0.07,0.1-0.07,0.26-0.12,0.49c2.88,2.56,5.65,5.36,9.82,5.9
		c1.49-2.22,2.43-4.62,4.31-6.42c0.09,0.16,0.16,0.23,0.14,0.28c-0.12,0.53-0.23,1.07-0.38,1.6c-1.89,6.73-2.57,13.66-3.23,20.59
		c-0.12,1.21-0.22,2.48,0.78,3.9c1.74-11.73,5.03-22.68,10.35-32.98c5.31-10.27,11.82-19.7,19.56-28.2
		c2.74,0.42,4.57,1.89,6.17,3.92c-0.74,0.96-1.45,1.89-2.17,2.8c-2.05,2.6-4.17,5.14-6.15,7.79
		c-10.17,13.61-17.33,28.58-20.46,45.37c-0.48,2.56-0.82,5.14-1.24,7.8c2.35,1.34,4.08,3.56,7.06,3.03
		c0.63-3.66,0.72-7.28,2.48-10.5c0.12,0.61,0.09,1.21,0.13,1.81c0.05,0.68-0.01,1.44,0.27,2.02c1.23,2.58,3.33,4.4,5.62,6.42
		c0.45-1.58,0.82-2.82,1.16-4.07c1.71-6.24,3.26-12.53,5.7-18.55c0.27-0.68,0.61-1.33,0.92-2.01c2.64,0.72,4.91,1.61,6.08,4.16
		c-2.98,8-5.47,16.12-7.31,24.67c0.71-0.19,1.15-0.31,1.52-0.41c0.83-1.91,1.02-3.94,2.21-5.77c1.93,2.12,4.39,2.55,6.93,2.86
		c0.34-0.63,0.63-1.17,0.95-1.78c2.77-0.53,5.55-0.99,8.3-1.61c2.02-0.45,3.77-0.32,5.31,1.27c0.79,0.82,1.8,1.48,3.18,1.29
		c0.34-1.3,0.67-2.54,0.98-3.75c0.67-0.2,1.19-0.36,1.72-0.51c3.08-0.88,5.17-2.81,6.14-5.88c0.46-1.44,0.87-2.9,1.21-4.38
		c0.8-3.5,1.78-6.94,3.36-10.18c0.18-0.37,0.45-0.7,0.68-1.05c0.12,0.86,0,1.6-0.1,2.34c-0.3,2.32-0.62,4.64-0.87,6.97
		c-0.12,1.1-0.2,2.27,0.68,3.12c1.33,1.29,2.69,2.56,4.13,3.73c0.67,0.54,1.54,0.96,2.61,0.38c0.35-2.1,0.73-4.26,1.08-6.43
		c1.23-7.75,2.47-15.51,4.51-23.1c1.49-5.54,3.31-10.94,6.3-15.89c1.01-1.67,2.21-3.14,3.86-4.24c2-1.33,3.96-2.72,5.94-4.07
		c1.2,0.39,2.35,0.89,3.56,1.13c1.13,0.23,2.35,0.4,3.46,0.2c1.15-0.21,2.21-0.89,3.51-1.45c-0.18,2.9-0.36,5.7-0.54,8.55
		c-1.66-0.11-3.06-0.97-4.83-0.47c0,1.05-0.03,2.07,0,3.1c0.22,6.96,0.45,13.91,1.62,20.8c0.74,4.35,1.7,8.65,3.26,12.79
		c0.26,0.69,0.57,1.51,1.12,1.91c1.87,1.34,3.98,2.08,6.4,1.92c0-1.26,0.01-2.41,0-3.57c-0.22-15.03-0.49-30.06,0.4-45.07
		c0.31-5.29,0.95-10.56,1.43-15.85c0.41-4.45,1.19-8.88,0.59-13.38c-0.5-3.71-1.29-7.22-4.76-9.41c-0.17-0.11-0.31-0.27-0.46-0.42
		c-1.2-1.22-2.65-2.01-4.3-2.32c-1.48-0.28-3-0.36-4.5-0.55c-2.04-0.26-3.44,0.71-4.47,2.34c-0.4,0.64-0.78,1.32-1,2.03
		c-0.98,3.15-1.95,6.31-2.81,9.49c-1.59,5.87-3.52,11.59-6.46,16.95c-1.88,3.42-4.21,6.46-7.34,8.84
		c-3.44,2.63-7.31,4.38-11.43,5.62c-0.09,0.03-0.22-0.08-0.55-0.21c1.69-2.23,3.27-4.47,5-6.6c3.49-4.3,6.47-8.91,8.91-13.88
		c4.23-8.6,7.94-17.42,11.24-26.41c1.13-3.09,2-6.28,2.97-9.35c-2.06-3.37-4.82-5.43-8.55-6.61c-1.34,2.28-2.67,4.37-3.82,6.55
		c-1.91,3.66-3.65,7.41-5.57,11.07c-1.05,2-2.24,3.94-3.76,5.5c-3.71,0.35-6.57,2.68-10.26,3.61c0.32-0.49,0.43-0.72,0.6-0.89
		c1.13-1.13,2.4-2.04,3.88-2.69c2.1-0.93,4.16-2.1,5.26-4.18c1.93-3.64,3.61-7.41,5.39-11.12c-0.9,1.36-1.8,2.71-2.74,4.12
		c-0.49-0.34-0.98-0.69-1.6-1.12c-0.52,0.18-1.11,0.35-1.67,0.57c-4.81,1.93-9.52,1.94-14.1-0.7c-0.41-0.24-0.86-0.42-1.3-0.6
		c-0.1-0.04-0.25,0.04-0.5,0.08c0.12,0.76,0.73,1.1,1.25,1.46c4.04,2.75,8.48,3.86,13.34,3.16c0.54-0.08,1.09-0.18,1.63-0.29
		c0.45-0.09,0.9-0.2,1.85-0.41c-0.7,1.1-1.15,1.81-1.5,2.38c-2-0.16-3.82-0.41-5.64-0.42c-1.83-0.01-3.66,0.23-5.64,0.37
		c1.45,2.46,3.81,2.26,6.4,2.39c-0.56,0.46-0.85,0.8-1.21,0.97c-2.44,1.15-4.97,0.96-7.48,0.36c-1.26-0.3-2.46-0.86-3.69-1.3
		c-1.08-0.39-2.16-0.78-3.68-1.33c1.49,2.76,4.27,2.69,6.29,4.23c-0.64,0.3-1.13,0.6-1.67,0.76c-2.05,0.59-4.1,1.16-6.17,1.68
		c-1.15,0.29-2.25,0.59-3.14,1.44c-0.39,0.37-0.87,0.71-1.37,0.9c-3.01,1.11-5.58,2.96-8.23,4.7c-1.61,1.06-3.27,2.04-4.94,3
		c-1.59,0.91-3.24,0.78-5.07,0.26c0.28-0.42,0.38-0.7,0.58-0.84c1.65-1.17,2.81-2.81,4.13-4.3c0.91-1.02,2.02-1.87,3.07-2.74
		c0.63-0.53,1.33-0.99,2.02-1.44c2.46-1.61,3.27-3.95,3.1-6.77c-0.1-1.61-0.8-2.82-2.3-3.36c-1.15-0.42-2.38-0.71-3.59-0.83
		c-2.87-0.3-5.53-1.05-7.61-3.02c-0.69-1.76,0.13-3.45-0.33-5.2c-0.39-1.48,0.15-3.21,0.31-5.1c0.96-0.09,2.04-0.31,3.1-0.25
		c2.6,0.16,4.69-0.83,6.54-2.53c1.83-1.67,3.66-3.35,5.49-5.02c0.46-0.41,0.93-0.8,1.37-1.18c0.2,0.07,0.38,0.08,0.43,0.16
		c1.26,2.24,0.83,6.11-0.94,7.88c-0.82,0.82-1.75,1.57-2.72,2.2c-2.24,1.45-4.08,3.24-5.45,5.55c-0.73,1.23-1.61,2.38-2.49,3.68
		c0.91,0.47,1.53-0.03,2.36-0.25c1.82-5.04,6.43-7.43,10.29-10.65c0.87,0.53,1.64,0.98,2.39,1.45c1.6,1.02,3.17,1.28,4.75-0.04
		c0.28-0.24,0.67-0.35,1.29-0.67c-0.59,1.75-1.53,2.8-2.68,3.66c-2.59,1.94-5.2,3.86-7.84,5.72c-0.72,0.5-1.6,0.77-2.41,1.14
		c-0.6,0.28-1.2,0.56-1.79,0.84c0.36,0.88,0.96,0.76,1.5,0.73c1.98-0.11,1.97-0.12,3.65,0.7c0.37-0.53,0.82-1.04,1.14-1.63
		c1.71-3.16,4.32-5.33,7.47-6.89c1.57-0.78,2.94-1.75,4.17-2.98c0.73-0.72,1.55-1.37,2.43-1.91c1.45-0.9,2.89-0.76,4.19,0.37
		c0.57,0.49,1.11,1.03,1.73,1.61c0.5-0.1,1.03-0.21,1.56-0.3c1.97-0.34,3.79-0.19,5.49,1.08c0.96,0.72,2.15,1.11,3.17,1.61
		c-1.54,0-3.18-0.03-4.82,0.01c-2.62,0.05-4.11,1.28-4.86,4.1c0.37,0.4,0.81,0.89,1.21,1.34c4.35-0.35,7.93-2.51,11.83-4.17
		c0,0.52,0,0.78,0,1.04c0.39-0.55,0.78-1.1,1.17-1.66c1.86-2.69,4.03-5.06,6.92-6.68c1.85-1.04,3.61-0.85,5.17,0.51
		c0.82,0.72,1.54,1.58,2.16,2.47c1.66,2.4,2.76,5.07,3.75,7.8c0.39,1.1,0.83,2.18,1.14,3c2.13,0.97,4.05,1.74,5.87,2.69
		c3.11,1.63,6.19,3.33,9.22,5.09c2.5,1.46,4.9,3.06,7.36,4.58c1.9,1.17,2.63,2.87,2.55,5.06c-0.08,2.04-0.69,3.93-1.4,5.8
		c-1.81,4.82-2.68,9.81-2.99,14.93c-0.11,1.71-0.41,3.41-0.64,5.12c-0.29,2.18-0.65,4.35-0.9,6.54c-0.15,1.33,0.57,2.26,1.74,2.77
		c0.68,0.3,1.43,0.53,2.17,0.6c3.29,0.29,6.6,0.46,9.89,0.78c3.36,0.32,6.7,0.75,10.05,1.13c2.98,0.34,5.97,1.33,8.87-0.35
		c0.3,0.26,0.54,0.47,0.83,0.73c-1.05,1.05-2.25,1.23-3.51,1.11c-1.99-0.18-3.97-0.44-5.95-0.65c-0.11-0.01-0.23,0.09-0.47,0.19
		c0.33,0.44,0.64,0.86,0.9,1.21c1.99,0.33,4.1-0.24,5.7,1.49c-1.76,1.41-3.82,0.73-5.57,1.47c0.74,0.24,1.46,0.29,2.19,0.29
		c1.52-0.01,3.03-0.07,4.55-0.08c0.86-0.01,1.67,0.09,1.88,1.41c-1.16,0.3-2.32,0.6-3.5,0.9c0.29,1.49,1.08,2.42,2.38,3.02
		c1.24,0.57,2.41,1.28,2.92,2.9c-1.41,0.09-2.65,0.18-4.12,0.27c0.87,1.12,1.76,1.12,2.76,1.07c1.36-0.07,2.76-0.11,4.1,0.09
		c1.56,0.23,2.75,1.14,3.38,2.79c-0.86,0.22-1.66,0.38-2.42,0.66c-0.21,0.08-0.28,0.52-0.45,0.87c0.67,0.15,1.19,0.27,1.58,0.36
		c0.85,1.14-0.25,1.5-0.72,2.13c0.28,0.88,0.48,1.75,0.83,2.57c0.92,2.15,1.9,4.28,2.86,6.41c1.1,2.44,2.07,2.94,4.85,2.49
		c-0.27-0.65-0.52-1.29-0.79-1.91c-1.5-3.43-3.01-6.86-4.51-10.3c-0.08,0.03-0.15,0.07-0.23,0.11c0-0.41,0-0.81,0-1.18
		c0.38-0.28,0.7-0.52,1.03-0.76c-0.38-2.51,0.03-5.21-2.1-6.99c-1.86-0.53-3.79,0.38-5.7-1.04c2.11,0,3.87,0,5.74,0
		c0-0.46,0-0.84,0-1.41c-1.53,0-3.03,0.01-4.53,0c-1.1-0.01-2.2-0.02-3.29-0.14c-0.36-0.04-0.68-0.42-1.02-0.65
		c1.35-0.4,2.58-0.44,3.8-0.5c1.44-0.07,2.89-0.09,4.33-0.24c0.73-0.08,1.55-0.26,1.42-1.41c-1.68-0.93-3.79,0.69-5.7-0.89
		c1.62-0.27,2.94-0.49,4.4-0.73c-0.36-0.81-0.65-1.47-0.94-2.12c-1.29,0-2.46,0.01-3.63,0c-1.1-0.02-2.24,0.47-3.7-0.36
		c2.81-1.21,5.3-0.56,7.73-0.24c0.96-1.61,1.24-3.09,0.16-4.71c-1.31-1.98-1.41-4.13-0.46-6.31c0.62-1.43,0.76-2.87,0.46-4.43
		c-0.53-2.71-0.82-5.47-0.41-8.22c0.36-2.38,0.71-4.78,1.31-7.11c1.12-4.34,1.05-8.72,0.73-13.12c-0.15-2.12-0.36-4.23-0.52-6.01
		c0.91-1.53,2.13-1.77,3.15-2.18c1.04,0.76,1.92,1.4,2.94,2.14c0.84-1.94,1.2-3.8,1.29-5.74c0.08-1.86,0.24-3.71,0.37-5.57
		C267.28,152.1,267.25,150.05,266.68,148.02z M141.62,114.63c2-1.54,2.53-4,4.09-5.96c-0.63-0.79-1.09-1.37-1.57-1.98
		c2.79,0.03,3.63,0.93,3.15,3.44c-0.55,2.84-2.36,4.89-4.53,6.64c-0.44,0.35-1.22,0.28-1.87,0.41
		C140.39,115.92,140.93,115.16,141.62,114.63z M197.31,192.19c2.01-4.56,3.05-9.39,4.16-14.21c0.25-1.07,0.53-2.13,0.85-3.18
		c0.13-0.41,0.38-0.79,0.92-1.08c-0.28,1.32-0.63,2.62-0.83,3.95c-0.74,4.82-1.41,9.65-2.15,14.47c-0.46,3.04-0.95,6.09-1.99,9.28
		c-1.55-0.7-2.84-1.27-4.11-1.85C195.27,196.97,196.26,194.57,197.31,192.19z M140.7,199.08c-1.49-1.66-2.81-3.13-4.14-4.61
		c3.22-0.61,6.7-1.28,10.18-1.94c0.09,0.16,0.17,0.31,0.26,0.47C144.9,195.02,142.81,197.04,140.7,199.08z M144.66,174.1
		c4.58-1.72,8.98-3.8,13.28-6.12c0.6-0.32,1.23-0.59,1.94-0.93c1.18,0.34,2.4,0.7,3.94,1.14c-0.65,0.59-1,0.98-1.41,1.28
		c-1.85,1.31-3.79,2.51-5.58,3.89c-2.17,1.68-4.29,3.43-6.32,5.28c-1.87,1.71-3.93,2.99-6.39,3.6c-1.71,0.43-3.39,0.43-5.01-0.44
		c-1.02-0.55-2.09-1.01-3.38-1.62C138.63,177.6,141.32,175.35,144.66,174.1z M126.41,138.06c-0.75,0-1.43,0.07-2.1-0.01
		c-3.5-0.43-6.86-0.13-10.05,1.52c-0.81,0.42-1.71,0.84-2.75,0.44C114.37,137.36,123.18,136.21,126.41,138.06z M125.28,153.78
		c-0.8,1.09-1.6,2.17-2.44,3.32c-1.05-0.73-1.96-1.42-2.93-2c-0.91-0.54-1.89-0.95-2.79-1.61
		C119.77,153.9,122.36,154.07,125.28,153.78z M118.75,150.83c0-0.17,0.01-0.35,0.01-0.52c1.66,0,3.32,0,5.22,0
		C122.12,151.32,120.44,151.16,118.75,150.83z M106.83,187.3c-1.29-4.81-3.01-9.43-4.86-14.03c-0.35-0.87-0.6-1.77-0.89-2.66
		c0.11-0.06,0.22-0.11,0.33-0.17c0.21,0.23,0.48,0.42,0.62,0.68c1.29,2.58,2.73,5.1,3.77,7.78c1,2.6,2.13,5.02,4.05,7.1
		c1.29,1.39,2.22,3.11,3.74,5.29c1.32,0.58,3.32,1.45,5.39,2.35C112.88,195.6,108.05,191.86,106.83,187.3z M128.8,159.56
		c1.9,0.3,3.81,0.53,5.72,0.83c0.54,0.09,1.08,0.24,1.58,0.47c1.36,0.61,3.09,1.01,3.34,2.73c0.28,1.94-0.05,3.98-1.63,5.32
		c-2.6,2.2-5.51,3.89-9.05,4.06c-0.83,0.04-1.65,0.02-2.48-0.01c-1.88-0.07-3.69,0.17-5.44,0.96c-1.21,0.54-2.5,0.81-3.95,0.02
		c-0.25-0.45-0.58-1.04-1.04-1.9c3.05-0.38,5.63-2.02,8.71-1.69c2.06,0.22,4.12-0.01,6.11-0.72c1.18-0.42,2.06-1.01,2.28-2.37
		c0.12-0.72,0.49-1.4,0.8-2.24c-1.39-0.62-2.85-0.52-4.25-0.7c-1.35-0.17-2.76,0.05-3.97-0.84c-0.24-0.18-0.66-0.15-1-0.15
		c-2.89-0.01-5.78-0.01-8.76-0.01c-0.95,2.13-2.92,1.61-4.84,1.74c-0.03,0.63-0.09,1.22-0.08,1.8c0.02,1.31,0.11,2.62,0.11,3.92
		c-0.01,1.43-0.48,2.69-1.69,3.78c-0.45-0.07-0.96-0.16-1.43-0.24c-0.11-0.31-0.2-0.49-0.24-0.69c-0.23-0.99-0.33-2.04-0.71-2.98
		c-0.69-1.71-1.54-3.36-2.33-5.05c-0.28,0.1-0.6,0.2-0.95,0.32c-0.05-0.21-0.16-0.41-0.13-0.59c0.53-2.98,1.05-5.96,1.63-8.93
		c0.52-2.7,1.08-5.4,1.68-8.08c0.35-1.52,0.41-2.99-0.17-4.46c-0.15-0.37-0.16-0.79-0.28-1.43c1.41-0.78,2.81-1.56,4.39-2.43
		c0.12,0.6,0.18,0.91,0.23,1.12c-0.18,0.2-0.25,0.35-0.37,0.39c-2.59,0.92-2.73,2.18-1.49,4.46c0.75,1.39,1.46,2.8,2.18,4.2
		c0.02,0.05-0.01,0.13-0.02,0.26c-0.47,0.11-0.97,0.23-1.89,0.45c1.38,1.05,2.4,1.96,3.54,2.66c3.54,2.17,7.32,3.84,11.25,5.12
		C125.64,159.19,127.25,159.31,128.8,159.56z M139.46,139.15c-3.08,0.9-6.17,0.95-9.26-0.25c2.12,0,4.24,0.08,6.35-0.02
		c2.14-0.1,3.72-1.51,5.69-3.05C141.67,137.71,140.88,138.74,139.46,139.15z M198.2,153.36c-0.88-2.09-1.67-4.21-2.57-6.29
		c-0.71-1.64-1.54-3.22-2.28-4.85c-0.39-0.87-0.7-1.77-1.04-2.64c1.57-2.43,3.46-4.38,5.92-6.22c2.73,8.65,6.49,16.76,7.58,26.03
		C202.02,158.45,199.56,156.57,198.2,153.36z M245.57,139.53c1.24,1.17,1.88,2.69,2.28,4.26c0.77,3,1.37,6.03,2.07,9.05
		c0.66,2.88,1.33,5.76,2.04,8.63c0.18,0.72,0.51,1.4,0.77,2.1c0.13-0.03,0.25-0.05,0.38-0.08c-1.53-6.81-3.06-13.62-4.59-20.43
		c0.16-0.04,0.32-0.08,0.48-0.11c1.78,7.34,3.56,14.68,5.39,22.22c-1.51,1.41-3.04,2.84-4.72,4.41c-0.25-0.69-0.46-1.12-0.57-1.58
		c-1.8-7.14-3.62-14.28-5.36-21.43C242.93,143.28,243.38,141.74,245.57,139.53z M253.49,177.97c-1.59,0.2-2.05-0.13-2.74-2
		C252.09,176.33,252.94,176.92,253.49,177.97z M229.75,180.02c0.12-0.87,0.22-1.58,0.34-2.51c6.62,0.97,13.1,1.92,19.8,2.9
		c-0.05,0.8-0.1,1.5-0.17,2.54C242.91,181.95,236.41,181,229.75,180.02z M237.13,185.65c-0.05,0.89-0.09,1.61-0.14,2.53
		c-3.2,0.03-6.17-0.79-9.49-0.94c0.19-1.14,0.32-1.86,0.47-2.79C231.05,184.85,234.01,185.24,237.13,185.65z M237.12,161.9
		c0.61,2.14,0.82,4.33,1.08,6.53C237.21,166.34,237.08,164.14,237.12,161.9z M239.56,173.47c-0.26,1.43-0.49,2.67-0.74,4.05
		c-1.32-0.21-2.44-0.39-3.9-0.62c0.25-1.42,0.45-2.61,0.7-4.04C236.96,173.06,238.18,173.26,239.56,173.47z M234.76,169.1
		c-0.46-2.85-1.04-5.61-1.33-8.4c-1.07-10.39-3.51-20.47-6.45-30.46c-1.09-3.68-1.7-7.51-2.51-11.27c-0.09-0.44-0.01-0.92-0.01-1.69
		c1.16,0.46,2.09,0.83,3.06,1.22c0.22,2,0.31,3.93,0.67,5.81c0.86,4.46,1.86,8.89,2.77,13.34c0.45,2.22,0.86,4.45,1.24,6.69
		c1.33,7.87,2.63,15.75,3.93,23.62c0.05,0.33,0.07,0.67,0.12,1.27C235.64,169.17,235.25,169.14,234.76,169.1z M234.7,172.51
		c-0.21,1.37-0.4,2.61-0.63,4.08c-1.34-0.22-2.52-0.41-3.94-0.65c0.27-1.51,0.49-2.69,0.73-4.05
		C232.2,172.11,233.32,172.29,234.7,172.51z M240.14,177.81c0.25-1.42,0.46-2.67,0.71-4.06c1.34,0.22,2.46,0.41,3.82,0.64
		c-0.21,1.38-0.4,2.62-0.62,4.06C242.67,178.23,241.48,178.03,240.14,177.81z M249.36,179.38c-1.42-0.25-2.61-0.45-4.01-0.7
		c0.21-1.36,0.41-2.59,0.64-4.08c1.38,0.24,2.61,0.45,3.99,0.69C249.77,176.68,249.59,177.87,249.36,179.38z M242.05,163.87
		c1.7,1.31,1.62,3.67,3.5,4.73c0.75-1.41-0.06-2.7-0.21-4.13c0.46,0.31,0.75,0.5,1.24,0.84c-0.15-2.18-0.94-3.97-1.34-5.88
		c-0.27,0.12-0.43,0.2-0.7,0.33c0.24-2.28-0.3-4.3-1.25-6.3c-0.56-1.18-0.92-2.55-0.67-4.29c0.33,0.54,0.56,0.79,0.64,1.08
		c1.46,5.43,2.91,10.85,4.32,16.29c0.38,1.47,0.3,2.98,0.14,4.64c-0.58-0.12-1-0.22-1.51-0.33c0.09-1.69,1.29-3.23,0.42-5.17
		c-1.01,1.14-0.24,2.44-0.89,3.51c-0.61,0-1.27,0-1.93,0C242.39,167.71,241.88,166.04,242.05,163.87z M235.77,138.32
		c0.95,4.44,2.19,8.84,2.7,13.33c0.5,4.34,1.64,8.49,2.6,12.71c0.45,1.98,1.37,3.86,2.14,5.97c-0.48,0.03-1.02,0.06-1.52,0.08
		c-2.42-6.99-6.09-25.61-6.51-33.06C235.46,137.79,235.71,138.04,235.77,138.32z M236.98,158.82c0.14,0.86,0.08,1.75,0.09,2.63
		c-0.25-0.97-0.55-1.93-0.72-2.91c-1.15-6.84-2.2-13.7-3.42-20.53c-0.77-4.33-1.83-8.61-2.69-12.92c-0.38-1.92-0.6-3.87-0.9-5.9
		c1.02,0.1,1.06,0.68,1.13,1.21c0.22,1.64,0.35,3.29,0.64,4.91c0.77,4.26,1.65,8.5,2.39,12.77
		C234.71,144.99,235.85,151.91,236.98,158.82z M237.75,97.58c-2.97,5.89-5.94,11.78-8.94,17.66c-0.25,0.48-0.6,0.91-1.03,1.56
		c-4.15-0.45-8.05-1.51-12.11-2.49c-0.41-0.9-0.82-1.83-1.27-2.83c0.85-0.4,1.57-0.17,2.27-0.03c2.63,0.53,5.25,1.1,7.87,1.63
		c0.73,0.15,1.49,0.22,2.41,0.35c0.76-1.14,1.57-2.24,2.26-3.41c2.04-3.43,4-6.89,6.06-10.31c0.62-1.04,1.43-1.96,2.49-2.78
		C237.76,97.15,237.84,97.4,237.75,97.58z M214.02,109.2c-0.64-3.07-1.27-6.07-1.9-9.07c0.14-0.04,0.29-0.08,0.43-0.12
		c1.35,2.9,2.07,6.03,3.2,9.46C214.96,109.34,214.52,109.28,214.02,109.2z M247.08,59.47c2.76,0.79,4.8,2.5,6.26,4.94
		c1.87,2.53,2.33,5.54,2.8,8.53c1.42,9.15,1.71,18.38,1.78,27.62c0.02,2.67,0,5.34,0,8.3c-0.97-0.77-1.07-1.62-1.1-2.46
		c-0.1-3.24-0.16-6.47-0.22-9.71c-0.06-3.58,0.01-7.16-0.18-10.73c-0.28-5.09-0.43-10.2-1.53-15.2c-0.46-2.07-1.19-4.08-1.8-6.11
		c-1.64-2.17-3.8-3.71-6.15-5.01c-2.22-0.61-4.44-1.23-6.67-1.84C242.62,58.03,244.98,58.22,247.08,59.47z M242.55,59.92
		c3.63,0.21,5.62,2,6.61,5.51c0.84,2.95,1.19,5.94,0.36,8.96c-0.12,0.45-0.35,0.88-0.77,1.3c0.04-0.4,0.04-0.8,0.11-1.19
		c0.54-3.04,0.39-6.01-0.68-8.95c-1.18-3.24-3.55-4.85-6.85-5.06c-1.63-0.1-3.28,0.22-4.92,0.36c-0.78,0.07-1.29,0.55-1.51,1.24
		c-0.6,1.86-1.1,3.75-1.7,5.61c-0.43,1.34-0.08,2.44,0.84,3.41c0.84,0.89,1.71,1.74,2.56,2.61c-0.22,0.24-0.36,0.38-0.59,0.63
		c0.94,0.31,1.83,0.61,2.72,0.9c0.01-0.2,0.02-0.4,0.04-0.6c1.51-0.25,2.22-0.05,4.97,1.43c-0.52,0.48-0.97,0.91-1.45,1.36
		c-1-0.52-1.89-0.99-2.78-1.46c0.83,0.7,1.6,1.48,2.49,2.09c1.64,1.11,3.35,2.12,5.16,3.24c-0.75,1.25-1.44,2.35-2.08,3.48
		c-1.12,1.98-2.21,3.97-3.3,5.96c-0.62,1.12-0.99,2.28-0.38,3.62c-0.35,0.5-0.7,0.99-1.01,1.43c-1.02-0.51-1.92-0.96-2.82-1.41
		c0-0.01,0.23-1.88,0.26-2.14c-0.77,0.83-1.4,1.51-2.13,2.29c-8.39-1.72-16.6-4.25-25.04-6.38c0.12-0.76,0.22-1.42,0.33-2.19
		c-0.52-0.16-1.05-0.24-1.51-0.48c-0.46-0.24-0.84-0.63-1.4-1.08c0.5-0.42,0.83-0.74,1.19-1c3.76-2.68,7.45-5.45,11.32-7.97
		c2.01-1.31,4.09-2.39,5.47-4.47c0.63-0.96,1.78-1.25,2.95-1.16c0.68,0.05,1.36,0.13,2.19,0.21c0-1.31-0.63-2.34-1.01-3.64
		c-0.72,0.38-1.27,0.62-1.77,0.95c-1.36,0.9-2.82,1.33-4.47,1.35c-4.95,0.08-9.9,0.26-14.85,0.4c-0.54,0.01-1.08,0-1.65,0
		c-0.39-0.87-0.13-1.43,0.53-2.05c0.7,0,1.51-0.06,2.32,0.01c4.26,0.35,8.51,0.73,12.76,1.1c0.34,0.03,0.69,0.04,1.03,0.08
		c1.28,0.15,2.1-0.42,2.57-1.59c0.87-2.19,1.27-4.49,1.55-6.93c-1.93-2.26-4.14-4.2-7.06-5.09c-3.54-1.08-6.67-0.07-9.4,2.26
		c-2.14,1.82-3.66,4.1-4.65,6.73c-0.26,0.68-0.55,1.35-0.82,2.03c-0.13-0.03-0.26-0.07-0.39-0.1c0.14-0.69,0.21-1.4,0.44-2.06
		c1.94-5.31,5.54-8.81,11.2-9.86c3.46-0.64,6.56,0.2,9.02,2.87c0.93,1.01,1.86,2.04,2.84,3.01c1.29,1.27,1.91,1.57,3.92,2.08
		c0-0.66,0-1.28,0-1.88c-1.12-0.57-2.19-1.12-3.5-1.79c1.6-0.4,1.6-0.4,4.19,0.71c0.21,0.46,0.47,1,0.73,1.56
		c0.24,0.03,0.44,0.08,0.64,0.08C237.75,60.11,240.16,59.78,242.55,59.92z M243.81,74.88c-1.19-0.84-2.17-1.7-2.51-3.12
		c0.91-0.43,1.8-0.84,2.83-1.33C244.66,71.94,244.8,73.36,243.81,74.88z M237.9,68.8c-1.46,1.72-2.92,1.66-4.16-0.29
		C235.32,67.34,236.13,67.41,237.9,68.8z M211.45,96.89c-0.81-3.08-1.62-6.16-2.42-9.24C210.5,90.54,211.01,93.71,211.45,96.89z
		 M208.06,81.16c1.41,0.3,1.44-1.2,2.35-1.42c0.81-0.2,1.36-0.73,1.96-1.32c0.66-0.64,1.64-0.95,2.62-1.48
		c0.01,1.26-0.59,2.04-1.42,2.64c-2,1.44-4.02,2.86-6.1,4.33c-1.13-1-1.28-2.11-1.33-3.19c-0.14-3.04-0.61-6-1.56-8.9
		c-0.16-0.5-0.14-1.06-0.19-1.56c1.88-0.69,5.57-0.59,7.79,0.18c-0.33,1.24-1.3,1.9-2.31,2.44c-1.3,0.7-1.85,1.71-1.81,3.17
		C208.1,77.76,208.06,79.47,208.06,81.16z M213.76,70.4c3.47,0.16,6.61,0.3,10.12,0.47c-1.85,2.02-3.68,3.57-6.12,4.9
		c0.32-1.71,1.81-2.34,2.28-3.64C218,71.66,215.65,72.69,213.76,70.4z M211.62,66.38c-0.03-1.94,0.77-3.04,3.26-4.31
		C214.33,65.36,213.93,65.88,211.62,66.38z M217.75,60.04c0.13,0.14,0.26,0.22,0.31,0.34c0.11,0.25,0.18,0.51,0.26,0.75
		c-0.5,0.28-0.98,0.55-1.51,0.85C216.64,61.11,216.92,60.46,217.75,60.04z M219.72,64.74c0.65-0.89,1.31-1.74,2.58-1.57
		c1.28,0.17,2.06,0.96,2.37,2.35C223.36,67.02,222.11,66.81,219.72,64.74z M236.29,50.67c0.11-1.57,0.44-3.13,0.64-4.7
		c0.19-1.5,0.33-3.01,0.49-4.51c0.16-1.48,0.32-2.96,0.47-4.44c0.11,0.01,0.21,0.01,0.32,0.02c0.04,0.27,0.12,0.53,0.12,0.8
		c0.07,5.38-0.33,10.72-1.2,16.02c-0.1,0.61-0.09,1.3-1.14,1.16C235.43,53.55,236.19,52.12,236.29,50.67z M228.5,49.69
		c0.78-4.46,1.56-8.93,2.35-13.39c0.15-0.86,0.35-1.72,0.59-2.86c0.61,2.38-1.18,16.1-2.42,19.14
		C228.15,51.58,228.33,50.63,228.5,49.69z M209.91,50.72c2.5-0.33,5.08-0.25,7.61-0.12c4,0.22,7.69,1.53,10.96,3.84
		c2.27,1.61,4.79,2.35,7.52,2.57c0.26,0.02,0.52,0.1,1.18,0.22c-1.51,0.48-2.67,0.43-3.72,0.02c-1.85-0.71-3.78-1.37-5.43-2.44
		c-4.9-3.18-10.3-4.11-15.97-3.92c-2.46,0.08-4.77,0.9-6.73,2.35c-2.1,1.54-4.03,3.32-6,5.03c-0.45,0.39-0.77,0.95-1.15,1.43
		c-0.14-0.16-0.28-0.33-0.43-0.49C201.14,55.45,204.43,51.44,209.91,50.72z M151.78,123.49c-0.37-1.45-0.01-1.88,2.44-2.85
		C153.45,121.55,152.67,122.46,151.78,123.49z M154.45,117.43c3.02-4.58,3.14-5.04,2.15-8.62c1.9-0.45,3.8-0.9,5.75-1.37
		c0.4,0.98,0.49,1.69-0.11,2.32c-2.37,2.5-4.75,4.98-7.14,7.46C155.03,117.31,154.86,117.31,154.45,117.43z M159.23,125.12
		c-0.15,0.48-0.28,0.92-0.41,1.35c-0.65,0-1.22,0-2.13,0c2.64-2.29,5.04-4.37,7.44-6.45C162.94,122.19,161.25,123.83,159.23,125.12z
		 M162.84,125.92c4.23-1.73,6.06-5.89,9.14-8.85c0.6,0,1.2,0,1.76,0c1.13,1.17,1.29,2.61,1.68,4.1
		C171.57,123.79,167.37,125.23,162.84,125.92z M182.93,119.27c-0.7-0.87-1.41-1.69-2.04-2.57c-2.26-3.12-5.16-5.5-8.48-7.41
		c-2.66-1.53-5.43-2.35-8.53-1.23c-0.34-0.41-0.61-0.75-1.1-1.35c2.77-0.44,5.27-0.84,7.77-1.23c0.81-0.13,1.63-0.22,2.45-0.35
		c1.54-0.24,3.01-0.1,4.4,0.68c0.3,0.17,0.62,0.3,0.93,0.45c6.67,3.15,6.67,3.15,11.24,9.44
		C187.3,116.94,185.19,118.06,182.93,119.27z M179.51,83.46c0.59-2.18,15-20.99,17.86-23.24C191.42,67.96,185.46,75.71,179.51,83.46
		z M194.98,100.39c-0.17-0.08-0.28-0.29-0.48-0.51c1.54-1.29,3.17-2.53,2.98-4.67c0.99-0.77,1.69-0.6,2.34,0.11
		c0.86,0.96,1.73,1.92,2.57,2.86c0.45-0.75,0.74-1.57,1.29-2.11c1.47-1.44,2.05-3.18,2.23-5.17c0.11-1.22,0.17-1.22,1.19-1.96
		c0.9,2.65,1.49,5.25,0.68,8.05c-0.59,2.04-0.94,4.15-1.48,6.21c-0.24,0.9-0.68,1.74-1.03,2.61c-1.37,0.31-2.24,0.04-2.93-0.56
		C200.1,103.31,197.65,101.68,194.98,100.39z M215.53,164.13c-0.51-0.46-0.73-1.29-0.95-2c-1.82-5.99-3.57-11.99-5.41-17.98
		c-1.52-4.93-3.19-9.81-5.44-14.47c-0.5-1.04-0.59-2.03-0.43-3.18c0.17-1.27,0.04-2.59,0-3.89c-0.01-0.53-0.11-1.06-0.17-1.57
		c2.93-0.63,3.51-0.41,4.88,1.85c3.84,6.33,6.78,13.03,8.65,20.22c1.85,7.12,3.72,14.24,4.9,21.51c0.07,0.45,0.08,0.92,0.12,1.49
		C219.23,166.37,217.21,165.66,215.53,164.13z M220.04,143.24c-1.22-5.32-3.25-10.36-5.5-15.31c-0.14-0.31-0.29-0.63-0.45-0.93
		c-0.72-1.38-1.22-2.79-0.55-4.34c0.76-1.74,1.86-3.23,3.56-4.15c0.5-0.27,1.15-0.27,1.94-0.43c0.72,1.46,1.37,2.78,1.9,3.87
		c-0.37,1.8-1.99,2.04-2.69,3.18c0.19,2.34,0.86,4.57,1.73,6.74c1.17,2.94,2.45,5.83,3.58,8.79c0.59,1.53,0.97,3.15,1.38,4.75
		c0.33,1.26,0.08,2.43-0.82,3.54c-1.33-1.14-1.29-2.74-1.71-4.14c-0.41-1.37-0.68-2.79-1.81-3.89c0.48,2.2,0.96,4.4,1.43,6.59
		c0.47,2.15,0.93,4.3,1.39,6.46c0.47,2.22,0.95,4.44,1.39,6.67c0.41,2.09,1.14,4.14,1.25,6.28c-0.16,0.03-0.32,0.07-0.49,0.1
		c-0.44-1.68-0.91-3.35-1.3-5.04C222.85,155.72,221.47,149.48,220.04,143.24z M222.77,207.16c-0.54-0.33-1.04-0.64-1.59-0.98
		c1.01-3.36,1.11-6.72,1.31-10.07c0.03-0.47,0.25-0.92,0.34-1.39c0.34-1.82,0.69-3.64,0.96-5.47c0.08-0.51-0.12-1.06-0.17-1.42
		c1.51-3.09,2.24-6.12,1.37-9.34c0.37-0.86,0.72-1.73,1.12-2.58c0.23-0.49,0.47-1,0.83-1.39c0.39-0.42,0.93-0.6,1.41-0.04
		c-0.42,1.15-1.07,2.26-1.21,3.42c-0.13,1.12-0.25,2.25-0.42,3.37c-0.33,2.17-0.51,4.37-0.87,6.54c-0.29,1.68-0.88,3.32-1.13,5.01
		C224.02,197.51,223.43,202.21,222.77,207.16z M228.6,206.75c-1.07-0.16-1.79-0.28-2.5-0.39c-0.26-1.77-0.15-2.9,0.55-5.4
		c0.75,0.08,1.54,0.17,2.56,0.29C229.01,203.11,228.81,204.82,228.6,206.75z M229.89,199.63c-0.32,0.05-0.52,0.12-0.72,0.1
		c-1.15-0.16-2.3-0.34-3.58-0.53c0-0.49,0-0.92,0-1.54c1.49-0.12,2.88,0.08,4.52,0.51C230.03,198.75,229.96,199.19,229.89,199.63z
		 M233.41,207.23c-0.92-0.04-1.64-0.08-2.54-0.12c-0.26-1.89,0.15-3.63,0.45-5.57c1.02,0.14,1.75,0.25,2.73,0.39
		C233.83,203.7,233.63,205.41,233.41,207.23z M235.37,200.55c-1.55-0.23-2.95-0.43-4.59-0.66c0.19-0.74,0.3-1.17,0.44-1.68
		c1.45,0.19,2.79,0.37,4.28,0.56C235.46,199.39,235.42,199.89,235.37,200.55z M238.92,208.12c-0.96-0.08-1.74-0.15-2.79-0.24
		c0.21-1.88,0.4-3.6,0.6-5.47c0.96,0.11,1.75,0.19,2.79,0.3C239.32,204.53,239.13,206.23,238.92,208.12z M241.09,201.33
		c-1.51-0.21-2.9-0.4-4.55-0.63c0.12-0.71,0.19-1.15,0.29-1.74c1.51,0.23,2.89,0.44,4.37,0.66
		C241.16,200.22,241.14,200.66,241.09,201.33z M244.85,208.89c-0.8-0.05-1.35-0.06-1.89-0.13c-0.26-0.03-0.51-0.17-0.92-0.31
		c0.2-1.69,0.39-3.37,0.62-5.3c0.94,0.14,1.73,0.25,2.76,0.4C245.23,205.32,245.06,206.99,244.85,208.89z M246.57,202.09
		c-1.51-0.19-2.94-0.38-4.58-0.59c0.1-0.73,0.16-1.12,0.24-1.72c1.48,0.19,2.87,0.37,4.33,0.56
		C246.57,200.93,246.57,201.38,246.57,202.09z M238.76,188.57c0.25-1.83,0.47-3.49,0.69-5.12c1.38-0.23,6.73,0.4,9.3,1.11
		c-0.25,1.77-0.49,3.44-0.76,5.33C244.87,189.44,241.92,189.02,238.76,188.57z M249.91,209.48c-1.01-0.09-1.85-0.16-2.91-0.26
		c0.2-1.82,0.38-3.49,0.58-5.36c0.93,0.07,1.72,0.12,2.6,0.18C250.59,205.9,249.8,207.53,249.91,209.48z M251.6,179.85
		c0.45-0.07,0.84-0.13,1.45-0.23c-0.12,2.89-0.53,5.6-1.19,8.43c-0.61-0.24-1.09-0.43-1.55-0.62
		C250.74,184.89,251.15,182.48,251.6,179.85z M251.84,211.55c-0.33-0.12-0.68-0.24-1.06-0.37c0.25-1.75,0.48-3.4,0.79-5.53
		c0.55,0.63,0.92,0.88,1.03,1.22C252.84,207.6,252.37,210.32,251.84,211.55z M256.03,180.37c-0.21,0.64-0.26,1.34-0.35,2.02
		c-0.84,6.47-1.66,12.94-2.5,19.4c-0.03,0.26-0.12,0.5-0.22,0.89c-0.91-0.36-1.27-1.09-1.72-1.71c0.97-1.65,2.09-10.48,1.61-12.35
		c1.44-3.33,1.51-6.83,1.84-10.3c1.05-0.32,1.05-0.32,2.23,0.33C256.62,179.22,256.23,179.76,256.03,180.37z M263.88,158.74
		c-0.05,0.61-0.23,1.22-0.35,1.82c-0.17,0.89-0.69,1.49-1.52,1.81c-1.47,0.58-2.94,1.13-4.67,1.8c-2.54-9.59-4.3-19.16-5.88-29.13
		c3.92,1.89,6.13,5.3,9.3,7.53c-0.78-3.38-2.15-6.34-5.31-8.15c-1.25-0.72-2.49-1.48-3.71-2.25c-0.37-0.23-0.66-0.57-1.2-1.04
		c1.97,0.59,6.8,3.17,7.83,4.11c0.15,0.14,0.32,0.27,0.44,0.44c3.13,4.53,5.75,9.28,5.62,15.01
		C264.37,153.38,264.09,156.06,263.88,158.74z"/>
	<path class="st0" d="M263.93,166.85c-0.74-1-1.44-1.72-2.66-1.8c-0.71,2.89-0.5,5.77-0.43,8.66c0.08,3.37,0.12,6.75-0.04,10.11
		c-0.21,4.68-0.69,9.34-0.92,14.02c-0.19,3.77,0.05,7.58-1.29,11.22c-0.02,0.06,0.02,0.13,0.07,0.43c0.59,0.48,1.32,1.07,2.14,1.74
		c0.3-0.49,0.54-0.81,0.72-1.17c0.92-1.91,0.98-3.98,1.09-6.05c0.24-4.61,0.5-9.21,0.79-13.82c0.33-5.16,0.83-10.29,0.26-15.48
		c-0.22-1.96,0.08-3.98,0.16-5.97C263.84,168.07,263.89,167.4,263.93,166.85z"/>
	<path class="st0" d="M224.44,76.18c-4.4,3.29-8.49,6.7-12.83,10.43c8.22,2.16,16.06,4.26,24.05,6c-0.25-3.17-2.8-12.35-4-14.37
		C228.64,80.09,226.5,78.29,224.44,76.18z M220.05,87.39c-0.74-0.16-1.35-0.29-2.1-0.46c0.47-2.53,1.03-4.72,3.97-5.94
		C221.25,83.29,220.68,85.23,220.05,87.39z M224.32,88.9c-0.71-0.23-1.21-0.39-1.88-0.6c0.55-2.53,1.17-4.93,2.07-7.38
		c0.6,0.14,1.11,0.25,1.73,0.4C226.02,83.94,225.17,86.29,224.32,88.9z M226.87,89.2c0.64-2.44,1.22-4.67,1.81-6.91
		c0.47-0.02,0.74-0.08,0.99-0.04c0.25,0.04,0.49,0.17,0.94,0.34c-0.6,2.47-1.19,4.9-1.85,7.65
		C227.98,89.81,227.46,89.53,226.87,89.2z M232.19,90.67c-0.57-0.07-1.08-0.14-1.7-0.22c0.43-1.78,0.83-3.42,1.29-5.34
		C233.1,87.07,232.86,88.78,232.19,90.67z"/>
	<path class="st0" d="M234.52,80.79c0.63,1.06,0.83,2.16,1.07,3.31c0.49,2.29,1.05,4.56,1.58,6.84c0.25-0.19,0.6-0.47,0.93-0.72
		c-0.04-0.78-0.24-1.68-0.08-2.52c0.25-1.29,0.01-2.45-0.41-3.62c-0.63-1.74-1.28-3.48-1.93-5.21c-0.53-1.39-1.08-2.78-1.7-4.39
		c-0.57,1.11-0.81,2.03-0.56,2.99C233.7,78.59,233.94,79.8,234.52,80.79z"/>
	<path class="st0" d="M237.21,91.05c0-0.01,0-0.02-0.01-0.02c-0.01-0.03-0.01-0.06-0.02-0.09c0,0-0.01,0.01-0.01,0.01
		C237.18,90.99,237.2,91.02,237.21,91.05z"/>
	<path class="st0" d="M237.21,91.05C237.22,91.12,237.25,91.16,237.21,91.05L237.21,91.05z"/>
	<path class="st0" d="M228.76,133.38c0.13-0.05,0.26-0.11,0.39-0.16c-0.7-2.76-1.4-5.53-2.1-8.29
		C226.92,127.91,227.47,130.74,228.76,133.38z"/>
</g>
</svg>
